<svg width="88" height="88" viewBox="0 0 88 88" fill="none" xmlns="http://www.w3.org/2000/svg">
<g filter="url(#filter0_i_13_730)">
<path d="M40.7178 3.24903L38.5076 5.45925C32.5842 2.14392 25.5115 1.48085 19.1903 3.55846L18.8366 3.24903C14.5488 -1.08301 7.5203 -1.08301 3.23247 3.24903C-1.05536 7.58106 -1.09956 14.5654 3.23247 18.8532L3.5419 19.2068C1.46429 25.5281 2.12736 32.6008 5.44269 38.5242L3.23247 40.7344C2.61233 41.347 2.11996 42.0766 1.78391 42.881C1.44787 43.6853 1.27483 44.5484 1.27483 45.4201C1.27483 46.2918 1.44787 47.1548 1.78391 47.9592C2.11996 48.7635 2.61233 49.4931 3.23247 50.1057L9.4653 56.3828C12.0734 58.9466 16.2286 58.9466 18.8366 56.3828L20.3838 54.7914L51.6805 86.044C54.2444 88.652 58.4438 88.652 61.0519 86.044L86.0274 61.0684C88.6355 58.4604 88.6355 54.261 86.0274 51.6529L54.7748 20.4004L56.3662 18.8532C58.9301 16.2451 58.9301 12.0899 56.3662 9.48185L50.0892 3.20482C48.8401 1.96896 47.1515 1.27944 45.3944 1.28773C43.6372 1.29602 41.9552 2.00144 40.7178 3.24903ZM9.64211 22.0359C9.99575 20.533 10.6146 19.0742 11.4545 17.7039L7.91814 14.1675C7.44354 13.7194 7.09324 13.1559 6.90144 12.532C6.32678 11.029 6.63621 9.17242 7.91814 7.9347C9.20007 6.69697 11.0125 6.34334 12.5154 6.918C13.1343 7.09481 13.6647 7.44845 14.151 7.9347L17.6873 11.4711C19.0577 10.6312 20.5164 10.0123 22.0194 9.65867C25.8209 8.55356 29.8877 8.81879 33.5125 10.4101L10.3936 33.5291C8.80223 29.9043 8.537 25.8375 9.64211 22.0359ZM81.3417 56.3828L56.3662 81.3583L25.1137 50.1057L50.0892 25.1302L81.3417 56.3828ZM51.6805 14.1675L14.151 51.6971L7.91814 45.4201L45.4035 7.9347L51.6805 14.1675ZM56.3662 42.2816L42.265 56.3828L37.5793 51.6971L51.6805 37.5959L56.3662 42.2816ZM65.7376 51.6971L51.6805 65.7541L46.9507 61.0684L61.0519 46.9672L65.7376 51.6971Z" fill="#FFC212"/>
</g>
<defs>
<filter id="filter0_i_13_730" x="0" y="0" width="91.9834" height="92" filterUnits="userSpaceOnUse" color-interpolation-filters="sRGB">
<feFlood flood-opacity="0" result="BackgroundImageFix"/>
<feBlend mode="normal" in="SourceGraphic" in2="BackgroundImageFix" result="shape"/>
<feColorMatrix in="SourceAlpha" type="matrix" values="0 0 0 0 0 0 0 0 0 0 0 0 0 0 0 0 0 0 127 0" result="hardAlpha"/>
<feOffset dx="4" dy="4"/>
<feGaussianBlur stdDeviation="2.5"/>
<feComposite in2="hardAlpha" operator="arithmetic" k2="-1" k3="1"/>
<feColorMatrix type="matrix" values="0 0 0 0 0 0 0 0 0 0 0 0 0 0 0 0 0 0 0.25 0"/>
<feBlend mode="normal" in2="shape" result="effect1_innerShadow_13_730"/>
</filter>
</defs>
</svg>
