<svg width="102" height="102" viewBox="0 0 102 102" fill="none" xmlns="http://www.w3.org/2000/svg">
<g filter="url(#filter0_i_13_736)">
<path d="M90.1091 31.4459H11.8888C9.18878 31.4459 7 33.6347 7 36.3347V46.1122C7 48.8122 9.18878 51.001 11.8888 51.001H90.1091C92.8091 51.001 94.9979 48.8122 94.9979 46.1122V36.3347C94.9979 33.6347 92.8091 31.4459 90.1091 31.4459Z" stroke="#FFC212" stroke-width="12.5" stroke-linecap="round" stroke-linejoin="round"/>
<path d="M50.9987 31.446V95M50.9987 31.446C49.2303 24.1588 46.1855 17.9288 42.2612 13.5685C38.3369 9.20824 33.7154 6.91997 28.9993 7.00214C25.7578 7.00214 22.6491 8.2898 20.3571 10.5819C18.065 12.8739 16.7773 15.9826 16.7773 19.2241C16.7773 22.4655 18.065 25.5742 20.3571 27.8663C22.6491 30.1583 25.7578 31.446 28.9993 31.446M50.9987 31.446C52.7671 24.1588 55.812 17.9288 59.7363 13.5685C63.6605 9.20824 68.2821 6.91997 72.9982 7.00214C76.2397 7.00214 79.3484 8.2898 81.6404 10.5819C83.9325 12.8739 85.2201 15.9826 85.2201 19.2241C85.2201 22.4655 83.9325 25.5742 81.6404 27.8663C79.3484 30.1583 76.2397 31.446 72.9982 31.446M85.2201 51.0011V85.2225C85.2201 87.8156 84.19 90.3026 82.3563 92.1362C80.5227 93.9699 78.0357 95 75.4426 95H26.5549C23.9617 95 21.4748 93.9699 19.6411 92.1362C17.8075 90.3026 16.7773 87.8156 16.7773 85.2225V51.0011" stroke="#FFC212" stroke-width="12.5" stroke-linecap="round" stroke-linejoin="round"/>
</g>
<defs>
<filter id="filter0_i_13_736" x="0.75" y="0.75" width="104.498" height="104.5" filterUnits="userSpaceOnUse" color-interpolation-filters="sRGB">
<feFlood flood-opacity="0" result="BackgroundImageFix"/>
<feBlend mode="normal" in="SourceGraphic" in2="BackgroundImageFix" result="shape"/>
<feColorMatrix in="SourceAlpha" type="matrix" values="0 0 0 0 0 0 0 0 0 0 0 0 0 0 0 0 0 0 127 0" result="hardAlpha"/>
<feOffset dx="4" dy="4"/>
<feGaussianBlur stdDeviation="2.5"/>
<feComposite in2="hardAlpha" operator="arithmetic" k2="-1" k3="1"/>
<feColorMatrix type="matrix" values="0 0 0 0 0 0 0 0 0 0 0 0 0 0 0 0 0 0 0.25 0"/>
<feBlend mode="normal" in2="shape" result="effect1_innerShadow_13_736"/>
</filter>
</defs>
</svg>
