<svg width="88" height="88" viewBox="0 0 88 88" fill="none" xmlns="http://www.w3.org/2000/svg">
<g filter="url(#filter0_i_23_2140)">
<path d="M76.1061 62.1878C74.5936 57.8738 71.0684 55.6875 67.6653 53.5734C64.7039 51.7327 61.9075 49.9933 60.0787 46.8703C55.0376 38.2198 52.2687 33 44.0101 33C35.7515 33 32.974 38.2216 27.9209 46.8686C26.0904 49.9984 23.2803 51.7412 20.3154 53.5855C16.9123 55.7012 13.394 57.8823 11.8764 62.1878C11.2857 63.7404 10.9885 65.3891 10.9998 67.0502C10.9998 74.0523 16.5772 79.75 22.7561 79.75C28.935 79.75 37.075 76.6339 44.0273 76.6339C50.9797 76.6339 59.0062 79.75 65.2625 79.75C71.5187 79.75 76.9998 74.0523 76.9998 67.0502C77.0047 65.3881 76.7017 63.7395 76.1061 62.1878Z" fill="#FFC212"/>
<path d="M12.375 49.5C17.6907 49.5 22 43.9595 22 37.125C22 30.2905 17.6907 24.75 12.375 24.75C7.05926 24.75 2.75 30.2905 2.75 37.125C2.75 43.9595 7.05926 49.5 12.375 49.5Z" fill="#FFC212"/>
<path d="M31.625 33C36.9407 33 41.25 27.4595 41.25 20.625C41.25 13.7905 36.9407 8.25 31.625 8.25C26.3093 8.25 22 13.7905 22 20.625C22 27.4595 26.3093 33 31.625 33Z" fill="#FFC212"/>
<path d="M56.375 33C61.6907 33 66 27.4595 66 20.625C66 13.7905 61.6907 8.25 56.375 8.25C51.0593 8.25 46.75 13.7905 46.75 20.625C46.75 27.4595 51.0593 33 56.375 33Z" fill="#FFC212"/>
<path d="M75.625 49.5C80.9407 49.5 85.25 43.9595 85.25 37.125C85.25 30.2905 80.9407 24.75 75.625 24.75C70.3093 24.75 66 30.2905 66 37.125C66 43.9595 70.3093 49.5 75.625 49.5Z" fill="#FFC212"/>
</g>
<defs>
<filter id="filter0_i_23_2140" x="0" y="0" width="92" height="92" filterUnits="userSpaceOnUse" color-interpolation-filters="sRGB">
<feFlood flood-opacity="0" result="BackgroundImageFix"/>
<feBlend mode="normal" in="SourceGraphic" in2="BackgroundImageFix" result="shape"/>
<feColorMatrix in="SourceAlpha" type="matrix" values="0 0 0 0 0 0 0 0 0 0 0 0 0 0 0 0 0 0 127 0" result="hardAlpha"/>
<feOffset dx="4" dy="4"/>
<feGaussianBlur stdDeviation="2.5"/>
<feComposite in2="hardAlpha" operator="arithmetic" k2="-1" k3="1"/>
<feColorMatrix type="matrix" values="0 0 0 0 0 0 0 0 0 0 0 0 0 0 0 0 0 0 0.25 0"/>
<feBlend mode="normal" in2="shape" result="effect1_innerShadow_23_2140"/>
</filter>
</defs>
</svg>
