<svg width="1882" height="853" viewBox="0 0 1882 853" fill="none" xmlns="http://www.w3.org/2000/svg">
<g opacity="0.5" filter="url(#filter0_f_23_1026)">
<path d="M1564.47 83.042C1605.97 63.042 1618.47 70.042 1618.47 70.042C1618.47 70.042 1626.47 17.042 1693.47 7.54204C1760.47 -1.95796 1785.47 35.5419 1785.47 35.5419C1785.47 35.5419 1823.97 2.5418 1888.97 25.042C1953.97 47.5421 1942.47 166.042 1860.97 166.042C1779.47 166.042 1627.97 166.042 1575.97 166.042C1523.97 166.042 1522.97 103.042 1564.47 83.042Z" fill="url(#paint0_linear_23_1026)"/>
</g>
<g opacity="0.5" filter="url(#filter1_f_23_1026)">
<path d="M1470.47 763.042C1511.97 743.042 1524.47 750.042 1524.47 750.042C1524.47 750.042 1532.47 697.042 1599.47 687.542C1666.47 678.042 1691.47 715.542 1691.47 715.542C1691.47 715.542 1729.97 682.542 1794.97 705.042C1859.97 727.542 1848.47 846.042 1766.97 846.042C1685.47 846.042 1533.97 846.042 1481.97 846.042C1429.97 846.042 1428.97 783.042 1470.47 763.042Z" fill="url(#paint1_linear_23_1026)"/>
</g>
<g opacity="0.5" filter="url(#filter2_f_23_1026)">
<path d="M1367.52 639.325C1390.8 628.078 1397.8 632.014 1397.8 632.014C1397.8 632.014 1402.29 602.21 1439.86 596.867C1477.43 591.525 1491.45 612.613 1491.45 612.613C1491.45 612.613 1513.04 594.055 1549.49 606.708C1585.93 619.361 1579.49 686 1533.79 686C1488.08 686 1403.13 686 1373.97 686C1344.81 686 1344.25 650.572 1367.52 639.325Z" fill="url(#paint2_linear_23_1026)"/>
</g>
<g opacity="0.5" filter="url(#filter3_f_23_1026)">
<path d="M123.469 496.042C164.969 476.042 177.469 483.042 177.469 483.042C177.469 483.042 185.469 430.042 252.469 420.542C319.469 411.042 344.469 448.542 344.469 448.542C344.469 448.542 382.969 415.542 447.969 438.042C512.97 460.542 501.469 579.042 419.97 579.042C338.47 579.042 186.969 579.042 134.969 579.042C82.9695 579.042 81.9696 516.042 123.469 496.042Z" fill="url(#paint3_linear_23_1026)"/>
</g>
<g opacity="0.5" filter="url(#filter4_f_23_1026)">
<path d="M24.0879 448.176C49.5598 435.929 57.2323 440.215 57.2323 440.215C57.2323 440.215 62.1426 407.761 103.266 401.944C144.39 396.127 159.735 419.09 159.735 419.09C159.735 419.09 183.365 398.882 223.261 412.66C263.158 426.438 256.099 499 206.076 499C156.052 499 63.0632 499 31.1464 499C-0.770354 499 -1.38412 460.423 24.0879 448.176Z" fill="url(#paint4_linear_23_1026)"/>
</g>
<defs>
<filter id="filter0_f_23_1026" x="1529" y="0" width="407.903" height="172.042" filterUnits="userSpaceOnUse" color-interpolation-filters="sRGB">
<feFlood flood-opacity="0" result="BackgroundImageFix"/>
<feBlend mode="normal" in="SourceGraphic" in2="BackgroundImageFix" result="shape"/>
<feGaussianBlur stdDeviation="3" result="effect1_foregroundBlur_23_1026"/>
</filter>
<filter id="filter1_f_23_1026" x="1435" y="680" width="407.903" height="172.042" filterUnits="userSpaceOnUse" color-interpolation-filters="sRGB">
<feFlood flood-opacity="0" result="BackgroundImageFix"/>
<feBlend mode="normal" in="SourceGraphic" in2="BackgroundImageFix" result="shape"/>
<feGaussianBlur stdDeviation="3" result="effect1_foregroundBlur_23_1026"/>
</filter>
<filter id="filter2_f_23_1026" x="1345" y="590" width="234" height="102" filterUnits="userSpaceOnUse" color-interpolation-filters="sRGB">
<feFlood flood-opacity="0" result="BackgroundImageFix"/>
<feBlend mode="normal" in="SourceGraphic" in2="BackgroundImageFix" result="shape"/>
<feGaussianBlur stdDeviation="3" result="effect1_foregroundBlur_23_1026"/>
</filter>
<filter id="filter3_f_23_1026" x="88" y="413" width="407.903" height="172.042" filterUnits="userSpaceOnUse" color-interpolation-filters="sRGB">
<feFlood flood-opacity="0" result="BackgroundImageFix"/>
<feBlend mode="normal" in="SourceGraphic" in2="BackgroundImageFix" result="shape"/>
<feGaussianBlur stdDeviation="3" result="effect1_foregroundBlur_23_1026"/>
</filter>
<filter id="filter4_f_23_1026" x="0" y="395" width="255" height="110" filterUnits="userSpaceOnUse" color-interpolation-filters="sRGB">
<feFlood flood-opacity="0" result="BackgroundImageFix"/>
<feBlend mode="normal" in="SourceGraphic" in2="BackgroundImageFix" result="shape"/>
<feGaussianBlur stdDeviation="3" result="effect1_foregroundBlur_23_1026"/>
</filter>
<linearGradient id="paint0_linear_23_1026" x1="1833" y1="237.5" x2="1725" y2="-55.5" gradientUnits="userSpaceOnUse">
<stop stop-color="white"/>
<stop offset="1" stop-color="white" stop-opacity="0"/>
</linearGradient>
<linearGradient id="paint1_linear_23_1026" x1="1739" y1="917.5" x2="1631" y2="624.5" gradientUnits="userSpaceOnUse">
<stop stop-color="white"/>
<stop offset="1" stop-color="white" stop-opacity="0"/>
</linearGradient>
<linearGradient id="paint2_linear_23_1026" x1="1518.1" y1="726.184" x2="1457.23" y2="561.529" gradientUnits="userSpaceOnUse">
<stop stop-color="white"/>
<stop offset="1" stop-color="white" stop-opacity="0"/>
</linearGradient>
<linearGradient id="paint3_linear_23_1026" x1="392" y1="650.5" x2="284" y2="357.5" gradientUnits="userSpaceOnUse">
<stop stop-color="white"/>
<stop offset="1" stop-color="white" stop-opacity="0"/>
</linearGradient>
<linearGradient id="paint4_linear_23_1026" x1="188.908" y1="542.756" x2="122.894" y2="363.24" gradientUnits="userSpaceOnUse">
<stop stop-color="white"/>
<stop offset="1" stop-color="white" stop-opacity="0"/>
</linearGradient>
</defs>
</svg>
