<svg width="90" height="86" viewBox="0 0 90 86" fill="none" xmlns="http://www.w3.org/2000/svg">
<g filter="url(#filter0_i_13_734)">
<path d="M89.6112 32.2549C89.1397 30.8234 88.2538 29.5608 87.0637 28.6239C85.8736 27.6869 84.4317 27.117 82.9173 26.985L60.8112 25.0914L52.1626 4.68032C51.5677 3.29227 50.5734 2.10833 49.3038 1.27606C48.0342 0.443792 46.5453 0 45.0227 0C43.5002 0 42.0113 0.443792 40.7416 1.27606C39.472 2.10833 38.4777 3.29227 37.8828 4.68032L29.2226 25.0914L7.11649 26.985C5.59383 27.1099 4.14232 27.6773 2.94409 28.6162C1.74585 29.555 0.854259 30.8234 0.381183 32.2622C-0.0918922 33.701 -0.12538 35.2462 0.284923 36.7038C0.695225 38.1614 1.53104 39.4665 2.6875 40.4554L19.4882 54.9744L14.4464 76.5762C14.1007 78.0471 14.2004 79.5864 14.7331 81.0015C15.2658 82.4167 16.2078 83.6449 17.4415 84.5327C18.6752 85.4205 20.1457 85.9284 21.6693 85.993C23.1928 86.0576 24.7018 85.6759 26.0075 84.8958L45.0111 73.465L64.0146 84.8958C65.3203 85.6747 66.8288 86.0553 68.3516 85.9901C69.8745 85.925 71.3441 85.4169 72.5771 84.5293C73.8101 83.6417 74.7517 82.414 75.2843 80.9996C75.8169 79.5851 75.9169 78.0466 75.5719 76.5762L70.5301 54.9744L87.3308 40.4554C88.4842 39.4629 89.3159 38.1552 89.7216 36.6962C90.1273 35.2373 90.0889 33.6922 89.6112 32.2549ZM63.7237 48.6252C62.6601 49.5417 61.8689 50.7279 61.435 52.0564C61.001 53.3849 60.9409 54.8053 61.261 56.1651L65.6784 75.1089L49.0251 65.0916C47.8157 64.3622 46.427 63.9764 45.0111 63.9764C43.5951 63.9764 42.2064 64.3622 40.9971 65.0916L24.3438 75.1089L28.7611 56.1651C29.0812 54.8053 29.0211 53.3849 28.5872 52.0564C28.1533 50.7279 27.362 49.5417 26.2984 48.6252L11.5261 35.8616L30.9717 34.1946C32.3799 34.0752 33.728 33.5755 34.8692 32.7499C36.0105 31.9244 36.9013 30.8046 37.4446 29.5124L45.0111 11.6556L52.5776 29.5124C53.1209 30.8046 54.0116 31.9244 55.1529 32.7499C56.2942 33.5755 57.6423 34.0752 59.0504 34.1946L78.4961 35.8616L63.7237 48.6252Z" fill="#FFC212"/>
</g>
<defs>
<filter id="filter0_i_13_734" x="0" y="0" width="94" height="90" filterUnits="userSpaceOnUse" color-interpolation-filters="sRGB">
<feFlood flood-opacity="0" result="BackgroundImageFix"/>
<feBlend mode="normal" in="SourceGraphic" in2="BackgroundImageFix" result="shape"/>
<feColorMatrix in="SourceAlpha" type="matrix" values="0 0 0 0 0 0 0 0 0 0 0 0 0 0 0 0 0 0 127 0" result="hardAlpha"/>
<feOffset dx="4" dy="4"/>
<feGaussianBlur stdDeviation="2.5"/>
<feComposite in2="hardAlpha" operator="arithmetic" k2="-1" k3="1"/>
<feColorMatrix type="matrix" values="0 0 0 0 0 0 0 0 0 0 0 0 0 0 0 0 0 0 0.25 0"/>
<feBlend mode="normal" in2="shape" result="effect1_innerShadow_13_734"/>
</filter>
</defs>
</svg>
