<svg width="102" height="102" viewBox="0 0 102 102" fill="none" xmlns="http://www.w3.org/2000/svg">
<g filter="url(#filter0_i_13_753)">
<path d="M51 59.8L62 48.8M51 53.2L37.8 40M51 95V37.8M26.899 29C28.01 16.6646 38.3764 7 51 7C63.6236 7 73.99 16.6646 75.101 29H75.2C80.4513 29 85.4875 31.0861 89.2007 34.7993C92.9139 38.5125 95 43.5487 95 48.8C95 54.0513 92.9139 59.0875 89.2007 62.8007C85.4875 66.5139 80.4513 68.6 75.2 68.6H26.8C21.5487 68.6 16.5125 66.5139 12.7993 62.8007C9.08607 59.0875 7 54.0513 7 48.8C7 43.5487 9.08607 38.5125 12.7993 34.7993C16.5125 31.0861 21.5487 29 26.8 29H26.899Z" stroke="#FFC212" stroke-width="12.5" stroke-linecap="round" stroke-linejoin="round"/>
</g>
<defs>
<filter id="filter0_i_13_753" x="0.75" y="0.75" width="104.5" height="104.5" filterUnits="userSpaceOnUse" color-interpolation-filters="sRGB">
<feFlood flood-opacity="0" result="BackgroundImageFix"/>
<feBlend mode="normal" in="SourceGraphic" in2="BackgroundImageFix" result="shape"/>
<feColorMatrix in="SourceAlpha" type="matrix" values="0 0 0 0 0 0 0 0 0 0 0 0 0 0 0 0 0 0 127 0" result="hardAlpha"/>
<feOffset dx="4" dy="4"/>
<feGaussianBlur stdDeviation="2.5"/>
<feComposite in2="hardAlpha" operator="arithmetic" k2="-1" k3="1"/>
<feColorMatrix type="matrix" values="0 0 0 0 0 0 0 0 0 0 0 0 0 0 0 0 0 0 0.25 0"/>
<feBlend mode="normal" in2="shape" result="effect1_innerShadow_13_753"/>
</filter>
</defs>
</svg>
